<svg xmlns="http://www.w3.org/2000/svg" width="268" height="341" viewBox="0 0 268 341"><path d="M102.08,90l-.32,2c22.11,0,20.81,12.36,15.61,36.42l-3.78,17.86Q97.21,148,85.44,148.38q-13.83.5-31.06.49H36.17V18.48H73.24q14.64,0,36.1,1.95a223,223,0,0,1,40,7.15L161,14.25H15q1.62,19.85,2.11,33.33t.49,27.8V213.26q0,14.31-.49,27.8T15,274.39H38.77q-1.62-19.83-2.11-33.33t-.49-27.8V153.1H54.38q17.24,0,31.06.49,11.06.39,26.19,1.93L83.55,288.38c-5.2,24.06-9.11,36.42-31.22,36.42L52,326.75h65l.33-1.95c-22.12,0-20.81-12.36-15.61-36.42l15.93-75.77h45.53c28,0,30.56,11.38,30.24,33.5h1.95l15-69.92h-2c-9.76,24.07-15.94,31.22-43.9,31.22H119L142.73,95.22h52.68c35.12,0,42.6,4.23,50.08,40h1.95L253,90Z" fill="#cabeb8"/></svg>