<svg xmlns="http://www.w3.org/2000/svg" width="1031" height="193" viewBox="0 0 1031 193"><path d="M103.56,15.19q-.82,10.73-1,20.12T102.32,54V141.5q0,9.3.21,18.68t1,20.13H90.14q.83-10.74,1.14-20.13t.31-18.68V54q0-9.29-.31-18.68T90.14,15.19Zm66.87,120q0,10,.31,20.15t1.14,25H158.46q.82-14.81,1-25t.21-20.15V104.32q0-18.93-5.26-28.4t-16.2-9.47Q126,66.45,117,76.28a79.11,79.11,0,0,0-14.66,22.94V94.13A63.79,63.79,0,0,1,117.91,72a33.42,33.42,0,0,1,23.42-9.47q14.86,0,22,10.68T170.43,107Z" fill="#222847"/><path d="M264.21,104.56q0-16.65-7.74-27.88t-22-11.22q-16.3,0-25.9,15.57T199,122.9a85.47,85.47,0,0,0,4.65,28.47q4.63,13.27,13.72,21.24a32.06,32.06,0,0,0,21.88,8q15.48,0,25.28-11.34t14.56-31.61h2.47q-4.74,22-15.79,34.39T237,184.43a45.75,45.75,0,0,1-25.9-7.6,50.4,50.4,0,0,1-17.86-21.35q-6.39-13.75-6.39-32.1,0-17.85,6.39-31.73t17.34-21.48a41.36,41.36,0,0,1,24.15-7.6q12.8,0,22.19,6.27a40.14,40.14,0,0,1,14.24,16.65,51.85,51.85,0,0,1,4.85,22.2H195.06v-3.13Z" fill="#222847"/><path d="M309.45,97.64H321q10.94,0,19.71-.31t21.57-1.76v6.81q-12.81-1.44-21.57-1.75T321,100.32H309.45m0,3V141.5q0,9.09.31,17.65t1.34,21.16H296q1-12.59,1.34-21.16t.31-17.65V54q0-9.08-.31-17.65T296,15.19H388.7l-7.43,8.46a140.71,140.71,0,0,0-25.38-4.54Q342.27,17.87,333,17.87H309.45v82.77" fill="#222847"/><path d="M442.37,67.42q-.83,11.17-1,21.73t-.21,21.48v26.46q0,10.93.21,21.49t1,21.73H429q.82-11.17,1.14-21.73t.31-21.49V110.63q0-10.92-.31-21.48T429,67.42Zm66.87,67.73q0,10,.31,20.15t1.14,25H497.27q.83-14.81,1-25t.21-20.15V104.32q0-18.93-5.26-28.4T477,66.45q-12.18,0-21.25,9.83a79.11,79.11,0,0,0-14.66,22.94V94.13A63.89,63.89,0,0,1,456.71,72a33.46,33.46,0,0,1,23.43-9.47q14.87,0,22,10.68T509.24,107Z" fill="#222847"/><path d="M601.59,104.56q0-16.65-7.74-27.88t-22-11.22q-16.3,0-25.9,15.57t-9.6,41.87A85.73,85.73,0,0,0,541,151.37q4.65,13.27,13.73,21.24a32,32,0,0,0,21.88,8q15.48,0,25.28-11.34t14.55-31.61h2.48q-4.75,22-15.79,34.39t-28.79,12.42a45.78,45.78,0,0,1-25.91-7.6,50.38,50.38,0,0,1-17.85-21.35q-6.4-13.75-6.4-32.1,0-17.85,6.4-31.73t17.34-21.48a41.36,41.36,0,0,1,24.15-7.6q12.79,0,22.18,6.27a40.16,40.16,0,0,1,14.25,16.65,51.85,51.85,0,0,1,4.85,22.2H532.45v-3.13Z" fill="#222847"/><path d="M750.76,16.32l-3.82,31.24h-1.35C740.42,22.84,735.25,19.91,711,19.91H674.57L658.16,97.45h31.47c19.33,0,23.6-4.94,30.34-21.57h1.35L711,124.2h-1.35c.23-15.28-1.57-23.15-20.9-23.15H657.26l-11,52.37c-3.6,16.63-4.49,25.17,10.79,25.17l-.22,1.35h-45l.23-1.35c15.28,0,18-8.54,21.58-25.17L657,42.84c3.6-16.63,4.49-25.17-10.79-25.17l.23-1.35Z" fill="#222847"/><path d="M744.69,162l16.64-76.25c1.34-6.13,2.69-12.27-1.35-12.27-3.37,0-9.67,6.57-18.66,18l-1.12-.88c10.34-18.84,20.9-28,27.64-28,7.65,0,8.1,7.88,5.4,20.59l-16.63,76.25c-.68,3.07-2.48,11.17,1.57,11.17,4.49,0,14.16-10.07,22.92-21.69l1.13.88c-11.24,20.6-23.15,32.87-32.14,32.87S742.67,170.8,744.69,162ZM765.37,28.9a9.89,9.89,0,1,1,9.89,9.89A10,10,0,0,1,765.37,28.9Z" fill="#222847"/><path d="M899.1,149.77c-11.24,20.6-23.38,32.87-31.69,32.87-8.09,0-9.22-7.45-6.07-20.6l13.71-57.84c4-17.09,6.74-32-6.07-32-22.48,0-53.94,50.61-66.53,107.8H791.22l20.45-94.22c1.35-6.13,2.7-12.27-1.35-12.27-3.37,0-9.67,6.57-18.65,18l-1.13-.88c10.34-18.84,20.9-28,27.65-28,7.64,0,8.09,7.88,5.39,20.59l-12.36,56.09c17.3-45.57,43.38-76.68,64.5-76.68,19.11,0,15.74,20.37,10.34,43.16l-12.58,53.68c-1.35,6.14-2.93,12.27.89,12.27,3.38,0,11-6.13,23.6-22.79Z" fill="#222847"/><path d="M1009.67,148.87l1.12.88c-11.23,20.61-23.15,32.89-32.14,32.89s-7.41-11.84-5.39-20.61L980,130.68c-13.71,33.32-36,52-54.61,52-13.94,0-22-10.75-22-30.92,0-39.24,30.34-89.22,70.35-89.22,8.32,0,15.28,2.19,19.78,6.79l7.19-33.1c3.15-14,.45-19.29-6.74-20.61l.22-1.31,22.93-5.7h.9L985.17,159.4c-.67,3.07-2.47,11.18,1.58,11.18C991.24,170.58,1000.91,160.49,1009.67,148.87Zm-23.82-44.79,1.57-7.22a39.78,39.78,0,0,0,.67-7.88c0-13.13-3.82-23.41-17.53-23.41C942,65.57,916,110.65,916,147.19c0,17.51,6.07,27.36,16.63,27.36C950.56,174.55,975.73,145,985.85,104.08Z" fill="#222847"/><path d="M405.77,62.57q-.82,11.64-1.13,22.66t-.31,22.41v27.6q0,11.38.31,22.4t1.13,22.67H392.36q.83-11.66,1-22.67t.2-22.4v-27.6q0-11.4-.2-22.41t-1-22.66Z" fill="#222847"/><circle cx="399.52" cy="31" r="9.08" fill="#222847"/><path d="M70.19,62.85v2.47H13V62.85Zm7.39,69.9Q75.3,150.63,71.8,160.9t-8.23,14.59a16.09,16.09,0,0,1-11.18,4.31q-9.27,0-14.1-7.29t-4.83-25.17q.27-42,.53-83.9l10,1.08q-.35,41.93-.68,83.85,0,15.82,2.93,22t8.62,6.17q7.56,0,12.49-9.87t8-33.9Z" fill="#222847"/><path d="M44.65,33.57q-.76,10.68-.95,20t-.19,18.59l-1.92,86.15q-1.52,5.59-3,5.59-2,0-3.91-10.09l-.69-72q0-13.71-.61-28.28-.39-10.24-1-20Z" fill="#222847"/></svg>